<svg aria-hidden="true" style="position: absolute; width: 0; height: 0; overflow: hidden;" version="1.1" xmlns="http://www.w3.org/2000/svg" xmlns:xlink="http://www.w3.org/1999/xlink">
<defs>
<symbol id="discord" viewBox="0 0 32 32">
<path d="M15.977-0.020c0.064 0 0.127 0 0.193 0 0.913 0.003 1.809 0.019 2.706 0.207 0.061 0.012 0.122 0.025 0.185 0.038 3.024 0.633 5.773 2.002 8.003 4.15 0.062 0.059 0.062 0.059 0.125 0.12 0.593 0.572 1.139 1.153 1.625 1.818 0.054 0.072 0.107 0.144 0.161 0.216 0.377 0.512 0.712 1.044 1.027 1.597 0.023 0.040 0.046 0.079 0.069 0.12 1.35 2.359 1.961 5.032 1.951 7.732-0 0.064-0 0.127-0 0.193-0.003 0.913-0.019 1.809-0.207 2.706-0.019 0.091-0.019 0.091-0.038 0.185-0.633 3.024-2.002 5.773-4.15 8.003-0.040 0.041-0.079 0.082-0.12 0.125-0.572 0.593-1.153 1.139-1.818 1.625-0.072 0.054-0.144 0.107-0.216 0.161-0.512 0.377-1.043 0.714-1.597 1.027-0.044 0.025-0.088 0.050-0.134 0.076-1.446 0.814-3.019 1.361-4.643 1.693-0.045 0.009-0.090 0.018-0.136 0.028-0.917 0.174-1.825 0.224-2.757 0.222-0.184-0-0.367 0.001-0.551 0.003-0.836 0.003-1.642-0.073-2.466-0.21-0.107-0.018-0.107-0.018-0.215-0.036-2.704-0.486-5.27-1.735-7.347-3.527-0.047-0.040-0.093-0.079-0.141-0.12-0.844-0.738-1.636-1.535-2.296-2.442-0.054-0.072-0.107-0.144-0.161-0.216-0.377-0.512-0.714-1.043-1.027-1.597-0.025-0.044-0.050-0.088-0.076-0.134-0.814-1.446-1.361-3.019-1.693-4.643-0.009-0.045-0.018-0.090-0.028-0.136-0.186-0.978-0.226-1.945-0.222-2.938 0-0.064 0-0.127 0-0.193 0.003-0.913 0.019-1.809 0.207-2.706 0.012-0.061 0.025-0.122 0.038-0.185 0.633-3.024 2.002-5.773 4.15-8.003 0.040-0.041 0.079-0.082 0.12-0.125 0.572-0.593 1.153-1.139 1.818-1.625 0.072-0.054 0.144-0.107 0.216-0.161 0.512-0.377 1.043-0.714 1.597-1.027 0.044-0.025 0.088-0.050 0.134-0.076 1.446-0.814 3.019-1.361 4.643-1.693 0.045-0.009 0.090-0.018 0.136-0.028 0.978-0.186 1.945-0.226 2.938-0.222zM11.688 7.398c-0.068 0.016-0.135 0.033-0.205 0.049-0.558 0.14-1.105 0.308-1.651 0.49-0.076 0.025-0.152 0.050-0.23 0.076-1.156 0.353-1.156 0.353-1.977 1.174-0.036 0.059-0.036 0.059-0.072 0.118-0.214 0.351-0.416 0.709-0.615 1.069-0.031 0.056-0.062 0.112-0.094 0.17-1.073 1.949-1.77 4.017-2.156 6.205-0.017 0.091-0.017 0.091-0.034 0.183-0.223 1.245-0.175 2.519-0.166 3.778 0 0.059 0.001 0.119 0.001 0.18-0.025 0.577-0.025 0.577 0.158 1.095 0.036 0.023 0.071 0.045 0.108 0.069 0.040 0.026 0.080 0.053 0.121 0.080 0.044 0.026 0.087 0.053 0.132 0.080 0.045 0.029 0.091 0.058 0.137 0.088 0.138 0.088 0.278 0.174 0.417 0.259 0.075 0.047 0.15 0.095 0.224 0.143 1.236 0.775 2.557 1.394 3.928 1.889 0.044 0.016 0.088 0.032 0.133 0.048 0.211 0.074 0.363 0.108 0.589 0.108 0.091-0.085 0.091-0.085 0.159-0.206 0.028-0.044 0.056-0.088 0.085-0.134 0.029-0.048 0.058-0.095 0.088-0.145 0.030-0.048 0.060-0.096 0.091-0.146 0.089-0.144 0.177-0.288 0.265-0.432 0.048-0.077 0.096-0.154 0.144-0.231 0.158-0.254 0.158-0.254 0.293-0.519-0.041-0.192-0.041-0.192-0.177-0.256-0.074-0.032-0.074-0.032-0.149-0.064-0.054-0.024-0.108-0.047-0.164-0.072-0.057-0.024-0.114-0.048-0.173-0.073-0.638-0.274-0.638-0.274-0.9-0.428-0.168-0.118-0.168-0.118-0.311-0.107 0.086-0.209 0.174-0.329 0.375-0.438 0.318 0.030 0.612 0.176 0.906 0.293 3.306 1.28 6.921 1.297 10.219-0.043 0.146-0.068 0.291-0.137 0.435-0.209 0.154-0.050 0.228-0.034 0.378 0.021 0.188 0.118 0.241 0.159 0.313 0.375-0.052 0.016-0.103 0.031-0.157 0.047-0.248 0.088-0.476 0.2-0.71 0.32-0.084 0.043-0.169 0.086-0.253 0.128-0.041 0.021-0.083 0.042-0.125 0.064-0.209 0.106-0.419 0.211-0.629 0.316 0.1 0.389 0.315 0.703 0.527 1.039 0.037 0.059 0.073 0.118 0.111 0.178 0.155 0.247 0.309 0.489 0.487 0.72 0.398-0.037 0.745-0.16 1.117-0.301 0.065-0.025 0.131-0.049 0.198-0.075 1.563-0.605 3.007-1.407 4.372-2.374 0.093-0.062 0.093-0.062 0.188-0.125 0.076-0.389 0.073-0.782 0.075-1.177 0.001-0.097 0.001-0.097 0.001-0.195 0.022-1.916 0.022-1.916-0.202-3.815-0.012-0.068-0.025-0.136-0.038-0.206-0.445-2.384-1.299-4.627-2.537-6.712-0.030-0.050-0.059-0.1-0.090-0.152-0.088-0.145-0.18-0.288-0.273-0.43-0.047-0.074-0.047-0.074-0.095-0.15-0.283-0.41-0.587-0.563-1.049-0.729-0.068-0.026-0.136-0.051-0.206-0.078-1.838-0.725-1.838-0.725-3.774-0.981-0.035 0.071-0.071 0.141-0.107 0.214-0.152 0.304-0.304 0.607-0.455 0.911-0.104-0.006-0.207-0.013-0.311-0.019-0.091-0.006-0.182-0.011-0.273-0.017-0.207-0.013-0.413-0.027-0.62-0.045-1.145-0.101-2.292-0.064-3.433 0.053-0.248 0.025-0.489 0.033-0.738 0.027-0.015-0.032-0.030-0.064-0.045-0.097-0.067-0.144-0.134-0.287-0.201-0.431-0.023-0.050-0.047-0.1-0.071-0.152-0.022-0.048-0.045-0.095-0.068-0.145-0.031-0.066-0.031-0.066-0.063-0.134-0.046-0.104-0.046-0.104-0.116-0.167-0.366-0.032-0.709 0.063-1.063 0.148z"></path>
<path d="M21.016 14.859c0.478 0.393 0.787 0.843 0.922 1.453 0.050 0.825 0.022 1.533-0.523 2.201-0.438 0.478-0.892 0.721-1.547 0.756-0.559-0.008-1.096-0.254-1.492-0.645-0.496-0.589-0.682-1.247-0.649-2.008 0.060-0.603 0.321-1.187 0.769-1.604 0.746-0.587 1.719-0.726 2.521-0.154z"></path>
<path d="M13.361 14.865c0.456 0.378 0.763 0.865 0.889 1.447 0.050 0.825 0.022 1.533-0.523 2.201-0.438 0.478-0.892 0.721-1.547 0.756-0.598-0.010-1.14-0.284-1.555-0.707-0.495-0.645-0.629-1.325-0.563-2.125 0.112-0.66 0.441-1.211 0.985-1.6 0.739-0.463 1.582-0.458 2.314 0.028z"></path>
</symbol>
<symbol id="youtube" viewBox="0 0 32 32">
<path d="M31.681 9.6c0 0-0.313-2.206-1.275-3.175-1.219-1.275-2.581-1.281-3.206-1.356-4.475-0.325-11.194-0.325-11.194-0.325h-0.012c0 0-6.719 0-11.194 0.325-0.625 0.075-1.987 0.081-3.206 1.356-0.963 0.969-1.269 3.175-1.269 3.175s-0.319 2.588-0.319 5.181v2.425c0 2.587 0.319 5.181 0.319 5.181s0.313 2.206 1.269 3.175c1.219 1.275 2.819 1.231 3.531 1.369 2.563 0.244 10.881 0.319 10.881 0.319s6.725-0.012 11.2-0.331c0.625-0.075 1.988-0.081 3.206-1.356 0.962-0.969 1.275-3.175 1.275-3.175s0.319-2.587 0.319-5.181v-2.425c-0.006-2.588-0.325-5.181-0.325-5.181zM12.694 20.15v-8.994l8.644 4.513-8.644 4.481z"></path>
</symbol>
<symbol id="instagram" viewBox="0 0 32 32">
<path d="M16 2.881c4.275 0 4.781 0.019 6.462 0.094 1.563 0.069 2.406 0.331 2.969 0.55 0.744 0.288 1.281 0.638 1.837 1.194 0.563 0.563 0.906 1.094 1.2 1.838 0.219 0.563 0.481 1.412 0.55 2.969 0.075 1.688 0.094 2.194 0.094 6.463s-0.019 4.781-0.094 6.463c-0.069 1.563-0.331 2.406-0.55 2.969-0.288 0.744-0.637 1.281-1.194 1.837-0.563 0.563-1.094 0.906-1.837 1.2-0.563 0.219-1.413 0.481-2.969 0.55-1.688 0.075-2.194 0.094-6.463 0.094s-4.781-0.019-6.463-0.094c-1.563-0.069-2.406-0.331-2.969-0.55-0.744-0.288-1.281-0.637-1.838-1.194-0.563-0.563-0.906-1.094-1.2-1.837-0.219-0.563-0.481-1.413-0.55-2.969-0.075-1.688-0.094-2.194-0.094-6.463s0.019-4.781 0.094-6.463c0.069-1.563 0.331-2.406 0.55-2.969 0.288-0.744 0.638-1.281 1.194-1.838 0.563-0.563 1.094-0.906 1.838-1.2 0.563-0.219 1.412-0.481 2.969-0.55 1.681-0.075 2.188-0.094 6.463-0.094zM16 0c-4.344 0-4.887 0.019-6.594 0.094-1.7 0.075-2.869 0.35-3.881 0.744-1.056 0.412-1.95 0.956-2.837 1.85-0.894 0.888-1.438 1.781-1.85 2.831-0.394 1.019-0.669 2.181-0.744 3.881-0.075 1.713-0.094 2.256-0.094 6.6s0.019 4.887 0.094 6.594c0.075 1.7 0.35 2.869 0.744 3.881 0.413 1.056 0.956 1.95 1.85 2.837 0.887 0.887 1.781 1.438 2.831 1.844 1.019 0.394 2.181 0.669 3.881 0.744 1.706 0.075 2.25 0.094 6.594 0.094s4.888-0.019 6.594-0.094c1.7-0.075 2.869-0.35 3.881-0.744 1.050-0.406 1.944-0.956 2.831-1.844s1.438-1.781 1.844-2.831c0.394-1.019 0.669-2.181 0.744-3.881 0.075-1.706 0.094-2.25 0.094-6.594s-0.019-4.887-0.094-6.594c-0.075-1.7-0.35-2.869-0.744-3.881-0.394-1.063-0.938-1.956-1.831-2.844-0.887-0.887-1.781-1.438-2.831-1.844-1.019-0.394-2.181-0.669-3.881-0.744-1.712-0.081-2.256-0.1-6.6-0.1v0z"></path>
<path d="M16 7.781c-4.537 0-8.219 3.681-8.219 8.219s3.681 8.219 8.219 8.219 8.219-3.681 8.219-8.219c0-4.537-3.681-8.219-8.219-8.219zM16 21.331c-2.944 0-5.331-2.387-5.331-5.331s2.387-5.331 5.331-5.331c2.944 0 5.331 2.387 5.331 5.331s-2.387 5.331-5.331 5.331z"></path>
<path d="M26.462 7.456c0 1.060-0.859 1.919-1.919 1.919s-1.919-0.859-1.919-1.919c0-1.060 0.859-1.919 1.919-1.919s1.919 0.859 1.919 1.919z"></path>
</symbol>
<symbol id="telegram" viewBox="0 0 32 32">
<path d="M16 0c-8.838 0-16 7.162-16 16s7.162 16 16 16 16-7.163 16-16-7.163-16-16-16zM23.863 10.969l-2.625 12.369c-0.181 0.881-0.712 1.087-1.45 0.681l-4-2.956-1.919 1.869c-0.225 0.219-0.4 0.4-0.8 0.4-0.519 0-0.431-0.194-0.606-0.688l-1.363-4.475-3.956-1.231c-0.856-0.262-0.862-0.85 0.194-1.269l15.412-5.95c0.7-0.319 1.381 0.169 1.113 1.25z"></path>
</symbol>
<symbol id="whatsapp" viewBox="0 0 32 32">
<path d="M27.281 4.65c-2.994-3-6.975-4.65-11.219-4.65-8.738 0-15.85 7.112-15.85 15.856 0 2.794 0.731 5.525 2.119 7.925l-2.25 8.219 8.406-2.206c2.319 1.262 4.925 1.931 7.575 1.931h0.006c0 0 0 0 0 0 8.738 0 15.856-7.113 15.856-15.856 0-4.238-1.65-8.219-4.644-11.219zM16.069 29.050v0c-2.369 0-4.688-0.637-6.713-1.837l-0.481-0.288-4.987 1.306 1.331-4.863-0.313-0.5c-1.325-2.094-2.019-4.519-2.019-7.012 0-7.269 5.912-13.181 13.188-13.181 3.519 0 6.831 1.375 9.319 3.862 2.488 2.494 3.856 5.8 3.856 9.325-0.006 7.275-5.919 13.188-13.181 13.188zM23.294 19.175c-0.394-0.2-2.344-1.156-2.706-1.288s-0.625-0.2-0.894 0.2c-0.262 0.394-1.025 1.288-1.256 1.556-0.231 0.262-0.462 0.3-0.856 0.1s-1.675-0.619-3.188-1.969c-1.175-1.050-1.975-2.35-2.206-2.744s-0.025-0.613 0.175-0.806c0.181-0.175 0.394-0.463 0.594-0.694s0.262-0.394 0.394-0.662c0.131-0.262 0.069-0.494-0.031-0.694s-0.894-2.15-1.219-2.944c-0.319-0.775-0.65-0.669-0.894-0.681-0.231-0.012-0.494-0.012-0.756-0.012s-0.694 0.1-1.056 0.494c-0.363 0.394-1.387 1.356-1.387 3.306s1.419 3.831 1.619 4.1c0.2 0.262 2.794 4.269 6.769 5.981 0.944 0.406 1.681 0.65 2.256 0.837 0.95 0.3 1.813 0.256 2.494 0.156 0.762-0.113 2.344-0.956 2.675-1.881s0.331-1.719 0.231-1.881c-0.094-0.175-0.356-0.275-0.756-0.475z"></path>
</symbol>
</defs>
</svg>
