<svg aria-hidden="true" style="position: absolute; width: 0; height: 0; overflow: hidden;" version="1.1" xmlns="http://www.w3.org/2000/svg" xmlns:xlink="http://www.w3.org/1999/xlink">
<defs>
<symbol id="linkedin" viewBox="0 0 32 32">
<path d="M12 12h5.535v2.837h0.079c0.77-1.381 2.655-2.837 5.464-2.837 5.842 0 6.922 3.637 6.922 8.367v9.633h-5.769v-8.54c0-2.037-0.042-4.657-3.001-4.657-3.005 0-3.463 2.218-3.463 4.509v8.688h-5.767v-18z"></path>
<path d="M2 12h6v18h-6v-18z"></path>
<path d="M8 7c0 1.657-1.343 3-3 3s-3-1.343-3-3c0-1.657 1.343-3 3-3s3 1.343 3 3z"></path>
</symbol>
<symbol id="github" viewBox="0 0 32 32">
<path d="M16 0.395c-8.836 0-16 7.163-16 16 0 7.069 4.585 13.067 10.942 15.182 0.8 0.148 1.094-0.347 1.094-0.77 0-0.381-0.015-1.642-0.022-2.979-4.452 0.968-5.391-1.888-5.391-1.888-0.728-1.849-1.776-2.341-1.776-2.341-1.452-0.993 0.11-0.973 0.11-0.973 1.606 0.113 2.452 1.649 2.452 1.649 1.427 2.446 3.743 1.739 4.656 1.33 0.143-1.034 0.558-1.74 1.016-2.14-3.554-0.404-7.29-1.777-7.29-7.907 0-1.747 0.625-3.174 1.649-4.295-0.166-0.403-0.714-2.030 0.155-4.234 0 0 1.344-0.43 4.401 1.64 1.276-0.355 2.645-0.532 4.005-0.539 1.359 0.006 2.729 0.184 4.008 0.539 3.054-2.070 4.395-1.64 4.395-1.64 0.871 2.204 0.323 3.831 0.157 4.234 1.026 1.12 1.647 2.548 1.647 4.295 0 6.145-3.743 7.498-7.306 7.895 0.574 0.497 1.085 1.47 1.085 2.963 0 2.141-0.019 3.864-0.019 4.391 0 0.426 0.288 0.925 1.099 0.768 6.354-2.118 10.933-8.113 10.933-15.18 0-8.837-7.164-16-16-16z"></path>
</symbol>
<symbol id="email" viewBox="0 0 32 32">
<path d="M0 25.333c0 1.473 1.193 2.667 2.667 2.667h26.667c1.473 0 2.667-1.193 2.667-2.667l-0-18c0-1.473-1.193-2.667-2.667-2.667l-26.667 0c-1.473 0-2.667 1.193-2.667 2.667v18zM9.813 16.353l-6.1-6.14c-0.506-0.507-0.506-1.327 0-1.833 0.507-0.507 1.327-0.507 1.833 0l9.733 9.746c0.393 0.387 1.041 0.387 1.427 0l9.746-9.746c0.507-0.507 1.327-0.507 1.833 0s0.507 1.327 0 1.833l-6.107 6.14 6.107 6.099c0.507 0.507 0.507 1.327 0 1.833s-1.327 0.507-1.833 0l-6.1-6.093c0 0-1.906 1.94-2.253 2.287-0.541 0.527-1.287 0.854-2.101 0.854-0.827 0-1.573-0.333-2.113-0.874-0.353-0.347-2.247-2.266-2.247-2.266l-6.094 6.093c-0.506 0.507-1.326 0.507-1.833 0-0.506-0.507-0.506-1.327 0-1.833l6.101-6.1z"></path>
</symbol>
<symbol id="phone" viewBox="0 0 25 32">
<path d="M25.143 22.143c0 0.643-0.286 1.893-0.554 2.482-0.375 0.875-1.375 1.446-2.179 1.893-1.054 0.571-2.125 0.911-3.321 0.911-1.661 0-3.161-0.679-4.679-1.232-1.089-0.393-2.143-0.875-3.125-1.482-3.036-1.875-6.696-5.536-8.571-8.571-0.607-0.982-1.089-2.036-1.482-3.125-0.554-1.518-1.232-3.018-1.232-4.679 0-1.196 0.339-2.268 0.911-3.321 0.446-0.804 1.018-1.804 1.893-2.179 0.589-0.268 1.839-0.554 2.482-0.554 0.125 0 0.25 0 0.375 0.054 0.375 0.125 0.768 1 0.946 1.357 0.571 1.018 1.125 2.054 1.714 3.054 0.286 0.464 0.821 1.036 0.821 1.589 0 1.089-3.232 2.679-3.232 3.643 0 0.482 0.446 1.107 0.696 1.536 1.804 3.25 4.054 5.5 7.304 7.304 0.429 0.25 1.054 0.696 1.536 0.696 0.964 0 2.554-3.232 3.643-3.232 0.554 0 1.125 0.536 1.589 0.821 1 0.589 2.036 1.143 3.054 1.714 0.357 0.179 1.232 0.571 1.357 0.946 0.054 0.125 0.054 0.25 0.054 0.375z"></path>
</symbol>
</defs>
</svg>
